<?xml version="1.0" encoding="utf-8"?>
<!-- Generator: Adobe Illustrator 16.2.1, SVG Export Plug-In . SVG Version: 6.00 Build 0)  -->
<!DOCTYPE svg PUBLIC "-//W3C//DTD SVG 1.1//EN" "http://www.w3.org/Graphics/SVG/1.1/DTD/svg11.dtd">
<svg version="1.1" id="Layer_1" xmlns="http://www.w3.org/2000/svg" xmlns:xlink="http://www.w3.org/1999/xlink" x="0px" y="0px"
	 width="641.92px" height="641.92px" viewBox="0 0 641.92 641.92" enable-background="new 0 0 641.92 641.92" xml:space="preserve">
<g>
	<g>
		<path fill="#F2796B" d="M474.648,93.863c0-17.185,5.875-32.988,15.703-45.547C441.188,17.706,383.154,0.003,320.978,0v72.005
			c65.186,0.133,124.467,25.381,168.714,66.565C480.257,126.15,474.648,110.664,474.648,93.863z"/>
		<path fill="#F2796B" d="M594.04,152.267c-12.536,9.759-28.282,15.588-45.4,15.588c-16.989,0-32.631-5.74-45.121-15.368
			c40.605,44.227,65.401,103.2,65.401,167.974c0,0.167-0.006,0.333-0.007,0.501h73.007c0,0,0,0,0-0.001
			C641.92,259.071,624.386,201.286,594.04,152.267z"/>
	</g>
	<g>
		<path fill="#F3C127" d="M135.35,154.748c-11.939,8.257-26.415,13.106-42.03,13.106c-17.13,0-32.887-5.837-45.427-15.608
			C17.539,201.27,0,259.062,0,320.96c0,0,0,0,0,0.001h72.005c0-0.167-0.006-0.333-0.006-0.501
			C71.999,256.785,95.963,198.715,135.35,154.748z"/>
		<path fill="#F3C127" d="M320.96,0c-62.173,0-120.203,17.696-169.366,48.299c9.836,12.562,15.716,28.372,15.716,45.564
			c0,15.542-4.802,29.958-12.989,41.865c44.018-39.613,102.26-63.729,166.14-63.729c0.173,0,0.345,0.006,0.518,0.006V0
			C320.972,0,320.966,0,320.96,0z"/>
	</g>
	<g>
		<path fill="#5B9B43" d="M548.64,474.129c17.105,0,32.842,5.82,45.373,15.566c30.362-49.028,47.907-106.829,47.907-168.735h-73.007
			c-0.133,67.128-26.897,127.996-70.276,172.631C511.806,481.509,529.359,474.129,548.64,474.129z"/>
		<path fill="#5B9B43" d="M474.648,548.12c0-19.192,7.309-36.676,19.293-49.824c-44.662,43.576-105.665,70.481-172.963,70.619
			v73.006c62.162-0.003,120.184-17.698,169.34-48.295C480.51,581.072,474.648,565.285,474.648,548.12z"/>
	</g>
	<g>
		<path fill="#446EB6" d="M93.319,474.129c16.903,0,32.473,5.68,44.931,15.219c-40.998-44.214-66.116-103.364-66.245-168.388H0
			c0,61.915,17.55,119.723,47.92,168.756C60.455,479.958,76.202,474.129,93.319,474.129z"/>
		<path fill="#446EB6" d="M320.46,568.921c-65.021,0-124.196-24.989-168.479-65.871c9.604,12.482,15.328,28.104,15.328,45.07
			c0,17.173-5.866,32.966-15.682,45.522c49.155,30.59,107.174,48.278,169.332,48.278c0.006,0,0.012,0,0.018,0v-73.005
			C320.805,568.915,320.633,568.921,320.46,568.921z"/>
	</g>
</g>
</svg>
